<svg width="96" height="96" viewBox="0 0 96 96" xmlns="http://www.w3.org/2000/svg">
  <!-- Background gradient -->
  <defs>
    <linearGradient id="bgGradient" x1="0%" y1="0%" x2="100%" y2="100%">
      <stop offset="0%" style="stop-color:#667eea;stop-opacity:1" />
      <stop offset="100%" style="stop-color:#764ba2;stop-opacity:1" />
    </linearGradient>
    
    <linearGradient id="penGradient" x1="0%" y1="0%" x2="100%" y2="100%">
      <stop offset="0%" style="stop-color:#ffecd2;stop-opacity:1" />
      <stop offset="100%" style="stop-color:#fcb69f;stop-opacity:1" />
    </linearGradient>
    
    <linearGradient id="highlightGradient" x1="0%" y1="0%" x2="100%" y2="100%">
      <stop offset="0%" style="stop-color:#a8edea;stop-opacity:1" />
      <stop offset="100%" style="stop-color:#fed6e3;stop-opacity:1" />
    </linearGradient>
    
    <filter id="shadow" x="-20%" y="-20%" width="140%" height="140%">
      <feDropShadow dx="0" dy="4" stdDeviation="3" flood-color="#000000" flood-opacity="0.3"/>
    </filter>
    
    <filter id="glow" x="-50%" y="-50%" width="200%" height="200%">
      <feGaussianBlur stdDeviation="2" result="coloredBlur"/>
      <feMerge> 
        <feMergeNode in="coloredBlur"/>
        <feMergeNode in="SourceGraphic"/>
      </feMerge>
    </filter>
  </defs>
  
  <!-- Main background circle with gradient -->
  <circle cx="48" cy="48" r="44" fill="url(#bgGradient)" filter="url(#shadow)"/>
  
  <!-- Inner glow circle -->
  <circle cx="48" cy="48" r="40" fill="none" stroke="rgba(255,255,255,0.3)" stroke-width="2" filter="url(#glow)"/>
  
  <!-- Highlighter pen body -->
  <path d="M25 20 L45 12 L52 18 L35 28 Z" fill="url(#penGradient)" stroke="#e6b17a" stroke-width="1" filter="url(#shadow)"/>
  
  <!-- Highlighter pen tip -->
  <path d="M25 20 L22 23 L25 26 L28 23 Z" fill="#ffd700" stroke="#b8860b" stroke-width="0.5"/>
  
  <!-- Pen grip details -->
  <rect x="35" y="15" width="8" height="2" rx="1" fill="#e6b17a" opacity="0.8"/>
  <rect x="35" y="18" width="8" height="2" rx="1" fill="#e6b17a" opacity="0.6"/>
  
  <!-- Highlighted text lines with modern design -->
  <rect x="20" y="35" width="45" height="6" rx="3" fill="url(#highlightGradient)" opacity="0.9" filter="url(#shadow)"/>
  <rect x="20" y="45" width="40" height="6" rx="3" fill="url(#highlightGradient)" opacity="0.9" filter="url(#shadow)"/>
  <rect x="20" y="55" width="35" height="6" rx="3" fill="url(#highlightGradient)" opacity="0.9" filter="url(#shadow)"/>
  
  <!-- Text content dots -->
  <circle cx="25" cy="38" r="1" fill="#667eea" opacity="0.7"/>
  <circle cx="30" cy="38" r="1" fill="#667eea" opacity="0.7"/>
  <circle cx="35" cy="38" r="1" fill="#667eea" opacity="0.7"/>
  
  <circle cx="25" cy="48" r="1" fill="#667eea" opacity="0.7"/>
  <circle cx="30" cy="48" r="1" fill="#667eea" opacity="0.7"/>
  <circle cx="35" cy="48" r="1" fill="#667eea" opacity="0.7"/>
  
  <circle cx="25" cy="58" r="1" fill="#667eea" opacity="0.7"/>
  <circle cx="30" cy="58" r="1" fill="#667eea" opacity="0.7"/>
  
  <!-- Sparkle effects -->
  <g filter="url(#glow)">
    <circle cx="70" cy="25" r="2" fill="#ffffff" opacity="0.8"/>
    <circle cx="75" cy="30" r="1.5" fill="#ffffff" opacity="0.6"/>
    <circle cx="68" cy="32" r="1" fill="#ffffff" opacity="0.7"/>
  </g>
  
  <!-- Modern accent elements -->
  <path d="M15 70 Q25 65 35 70 T55 70" fill="none" stroke="rgba(255,255,255,0.4)" stroke-width="1.5" stroke-linecap="round"/>
  <path d="M20 75 Q30 70 40 75 T60 75" fill="none" stroke="rgba(255,255,255,0.3)" stroke-width="1" stroke-linecap="round"/>
</svg> 